<svg xmlns="http://www.w3.org/2000/svg" xmlns:xlink="http://www.w3.org/1999/xlink" width="338pt" height="344" viewBox="0 0 338 258"><g id="graph0" class="graph" transform="scale(1 1) rotate(0) translate(4 254)"><title>G</title><polygon fill="#fff" stroke="#fff" points="-4 5 -4 -254 335 -254 335 5 -4 5"/><g id="clust1" class="cluster"><title>cluster_global</title><path fill="none" stroke="gray" d="M180,-8C180,-8 310,-8 310,-8 316,-8 322,-14 322,-20 322,-20 322,-230 322,-230 322,-236 316,-242 310,-242 310,-242 180,-242 180,-242 174,-242 168,-236 168,-230 168,-230 168,-20 168,-20 168,-14 174,-8 180,-8"/><text x="245" y="-229.2" fill="gray" font-family="Times,serif" font-size="11" text-anchor="middle">global</text></g><g id="node1" class="node"><title>\\PHPMailer</title><g id="a_node1"><a target="_parent" xlink:href="class.phpmailer.html" xlink:title="PHPMailer"><polygon fill="none" stroke="#000" points="283.5 -214 206.5 -214 206.5 -178 283.5 -178 283.5 -214"/><text x="245" y="-193.2" font-family="Courier,monospace" font-size="11" text-anchor="middle">PHPMailer</text></a></g></g><g id="node2" class="node"><title>\\phpmailerException</title><g id="a_node2"><a target="_parent" xlink:href="class.phpmailer.html" xlink:title="phpmailerException"><polygon fill="none" stroke="#000" points="314 -160 176 -160 176 -124 314 -124 314 -160"/><text x="245" y="-139.2" font-family="Courier,monospace" font-size="11" text-anchor="middle">phpmailerException</text></a></g></g><g id="node5" class="node"><title>\\Exception</title><ellipse cx="52" cy="-142" fill="none" stroke="#000" rx="51.191" ry="18"/><text x="52" y="-138.3" fill="gray" font-family="Times,serif" font-size="14" text-anchor="middle">\Exception</text></g><g id="edge1" class="edge"><title>\\phpmailerException-&gt;\\Exception</title><path fill="none" stroke="#000" d="M175.854,-142C155.509,-142 133.356,-142 113.534,-142"/><polygon fill="none" stroke="#000" points="113.403 -138.5 103.403 -142 113.403 -145.5 113.403 -138.5"/></g><g id="node3" class="node"><title>\\POP3</title><g id="a_node3"><a target="_parent" xlink:href="class.pop3.html" xlink:title="POP3"><polygon fill="none" stroke="#000" points="272 -106 218 -106 218 -70 272 -70 272 -106"/><text x="245" y="-85.2" font-family="Courier,monospace" font-size="11" text-anchor="middle">POP3</text></a></g></g><g id="node4" class="node"><title>\\SMTP</title><g id="a_node4"><a target="_parent" xlink:href="class.smtp.html" xlink:title="SMTP"><polygon fill="none" stroke="#000" points="272 -52 218 -52 218 -16 272 -16 272 -52"/><text x="245" y="-31.2" font-family="Courier,monospace" font-size="11" text-anchor="middle">SMTP</text></a></g></g></g></svg>